<?xml version="1.0" encoding="utf-8"?>
<!-- Generator: Adobe Illustrator 25.2.3, SVG Export Plug-In . SVG Version: 6.00 Build 0)  -->
<svg version="1.1" id="Capa_1" xmlns="http://www.w3.org/2000/svg" xmlns:xlink="http://www.w3.org/1999/xlink" x="0px" y="0px"
	 viewBox="0 0 446.69 487.96" style="enable-background:new 0 0 446.69 487.96;" xml:space="preserve">
<style type="text/css">
	.st0{fill:#EF8048;}
	.st1{fill:#E16A2B;}
	.st2{fill:#FCCF80;}
</style>
<g>
	<path class="st0" d="M144.99,260.47c13.45,10.03,38.29,17.43,55.03,18.7c22.29,1.68,39-6.82,59.47-12.88
		c-1.06,0.31,7.61,37.53,8.74,40.9c4.32,12.96,11.2,25.16,18.97,36.34c10.98,15.8,24.99,26.12,40.29,37.39
		c14.45,10.64,54.07,44.78,25.88,61.8c-10.18,6.15-20.92,10.21-33.27,8.78c-5.06-0.58-8.19-4.24-9.35-8.79
		c-8.97-35.19-52.07-57.84-84.54-35.56c-9.45,6.48-17.71,13.81-21.72,24.89c-2.88,7.97-5.55,13.87-14.45,15.89
		c-15.06,3.43-43,4.53-49.16-13.75c-5.42-16.09-8.18-27.27-23.84-36.62c-6.23-3.72-12.95-6.19-20.29-6.06
		c-8.13,0.14-16.37-0.02-24.37,1.23c-13.41,2.09-23.01,9.35-32.17,18.82c-7.67,7.94-18.27,12.76-27.62,4.88
		c-6.47-5.45-8.92-12.7-7.82-20.89c0.72-5.36,3.98-9.79,7.83-13.4c4.05-3.79,8.41-7.33,13.02-10.4
		c11.77-7.84,24.17-14.62,36.94-20.69c16.8-7.99,30.8-19.43,43.05-33.36C121.2,299.97,130.9,278.69,144.99,260.47z"/>
	<path class="st1" d="M166.95,197.9c-0.1,7.38-5.15,13.5-11.1,13.37c-8.39-0.18-12.35-6.18-12.8-12.94
		c-0.38-5.87,6.54-12.05,12.6-11.93C161.86,186.53,167.03,191.79,166.95,197.9z"/>
	<path class="st1" d="M260.83,215.32c-0.08,7.38-5.12,13.53-11.07,13.41c-8.35-0.17-12.34-6.04-12.83-12.9
		c-0.42-5.85,6.5-12.06,12.56-11.97C255.69,203.96,260.89,209.22,260.83,215.32z"/>
	<path class="st1" d="M196.88,241.12c-5.67,2.98-11.48,4.21-17.71,2.2c-4.17-1.35-6.51-4.47-8.17-8.26
		c-0.69-1.58,0.18-2.6,1.64-2.59c1.23,0,2.62,0.45,3.67,1.11c4.3,2.73,8.75,3.51,13.58,1.62c-1.11-1.64-2.24-3.14-3.17-4.76
		c-1.28-2.23-0.4-3.64,2.2-3.48c3.22,0.19,5.68,1.9,7.58,4.05c1.99-0.35,3.81-0.8,5.65-0.92c0.81-0.05,1.91,0.39,2.39,0.99
		c0.3,0.38-0.24,1.53-0.58,2.25c-0.4,0.82-1,1.55-1.66,2.53c5.68,3.37,11.61,4.59,18.04,3c0.45-0.11,0.91-0.46,1.33-0.41
		c1.34,0.18,3.09,0.1,3.84,0.91c0.58,0.62,0.15,2.52-0.29,3.69c-0.85,2.26-2.15,3.89-5.03,4.18
		C211.61,248.1,203.6,247.14,196.88,241.12z"/>
	<path class="st2" d="M287.5,116.85c10.13-4.24,19.83-8.66,29.79-12.38c10.15-3.78,20.75-6.16,31.52-7.33
		c26.17-2.85,44.13-5.37,69.66,0.3c17.18,3.82,22.1,8.22,23.49,18.13c1.29,9.22-3.97,14.48-7.79,18.47
		c-10.2,5.94-14.35,7.06-20.56,9.91c-18.03,8.29-28.15,9.57-47.51,13.43c-18.02,3.59-36.18,6.5-54.3,9.65
		c-4.66,0.81-9.01,4.62-9.76,9.27c-1.77,10.95-5.49,21.22-10.61,31c-3.42,6.52-6.99,12.97-10.44,19.47
		c-4.37,8.26-11.66,13.77-18.84,19.13c-16.61,12.4-35.52,19.46-56.24,18.49c-34.48-1.62-61.94-16.39-79.02-47.33
		c-10.1-18.29-11.88-38-7.34-58.29c3.29-14.75,8.68-28.59,19.12-39.84c3.26-3.52,7.24-6.5,11.29-9.12
		c5.06-3.28,8.81-7.13,10.65-13.1c3.83-12.44,11.25-26.24,20.36-35.31c11.09-11.04,21.22-21.11,34.23-29.86
		c16.75-11.26,38.36-18.49,57.9-23.3c12.12-2.99,20.23-4.5,32.77-4.37c4.2,0.04,11.77,1.46,15.32,3.73
		c4.69,3.01,7.29,8.06,5.94,13.85c-1.91,8.21-5.55,13.71-12.75,18.24c-6.52,4.1-13.53,7.47-20.47,10.87
		c-17.11,8.38-34.34,16.5-51.4,24.99c-2.45,1.22-4.32,3.78-6.16,5.97c-1.33,1.58-0.11,3.41,2.33,3.9
		c7.65,1.53,15.03,3.89,22.04,7.37c10.62,5.28,19.58,12.44,25.84,22.68C286.9,116.06,287.34,116.62,287.5,116.85z M196.88,241.12
		c6.72,6.02,14.73,6.98,23.32,6.11c2.88-0.29,4.18-1.92,5.03-4.18c0.44-1.16,0.87-3.06,0.29-3.69c-0.75-0.81-2.5-0.72-3.84-0.91
		c-0.42-0.06-0.88,0.3-1.33,0.41c-6.43,1.59-12.37,0.37-18.04-3c0.66-0.98,1.26-1.71,1.66-2.53c0.35-0.72,0.88-1.87,0.58-2.25
		c-0.47-0.61-1.58-1.04-2.39-0.99c-1.84,0.12-3.66,0.57-5.65,0.92c-1.9-2.15-4.36-3.87-7.58-4.05c-2.61-0.15-3.48,1.25-2.2,3.48
		c0.93,1.62,2.06,3.11,3.17,4.76c-4.83,1.89-9.27,1.11-13.58-1.62c-1.05-0.67-2.44-1.11-3.67-1.11c-1.46,0-2.33,1.02-1.64,2.59
		c1.65,3.79,4,6.91,8.17,8.26C185.4,245.33,191.21,244.1,196.88,241.12z M166.95,197.9c0.08-6.11-5.1-11.38-11.3-11.5
		c-6.06-0.11-12.98,6.06-12.6,11.93c0.44,6.76,4.4,12.76,12.8,12.94C161.81,211.41,166.85,205.29,166.95,197.9z M260.83,215.32
		c0.07-6.1-5.14-11.36-11.34-11.46c-6.06-0.09-12.98,6.12-12.56,11.97c0.49,6.87,4.48,12.73,12.83,12.9
		C255.7,228.85,260.74,222.7,260.83,215.32z"/>
	<path class="st2" d="M382.17,354.27c-0.2,11.88-6.44,19.69-17.68,22.03c-4.64,0.97-9.26,0.59-13.8-0.44
		c-5.74-1.31-11.5-2.64-17.07-4.49c-2.74-0.91-5.22-2.84-7.58-4.61c-23.74-17.79-40.39-40.67-48.8-69.21
		c-2.81-9.55-4.76-19.36-7-29.07c-0.17-0.75,0.28-1.93,0.85-2.52c3.23-3.3,6.65-6.4,9.84-9.73c0.91-0.95,1.55-0.96,2.6-0.52
		c33.85,14.28,62.21,35.71,84.52,65c6.55,8.59,11.76,17.82,13.61,28.64C381.93,350.97,382,352.63,382.17,354.27z"/>
	<path class="st2" d="M139.18,251.79c-6.22,12.04-13.15,23.4-21.15,34.11c-13.02,17.44-27.61,33.35-44.83,46.8
		c-3.97,3.1-8.45,4.3-13.01,5.63c-4.07,1.18-8.16,2.31-12.25,3.4c-12.36,3.29-22.04-5.59-24.97-15.6
		c-1.87-6.38-0.91-11.88,3.65-17.01c8.39-9.46,18.21-17.14,28.7-24.02c18.07-11.84,37.19-21.63,57.48-29.08
		C121.2,252.92,129.78,250.47,139.18,251.79z"/>
	<path class="st2" d="M119.45,431.12c-0.1,15.84-7.87,26.71-21.8,33.47c-7.56,3.67-15.51,6.3-24.04,5.66
		c-11.04-0.83-20.67-4.72-26.91-14.52c-7.13-11.19-6.92-25.87,3.47-37.38c9.07-10.03,20.24-16.13,33.52-18.33
		c3.73-0.62,14.02,0.62,17.6,2.5c6.62,3.49,9.09,3.68,14.22,11.77c3.85,3.62,3.28,7.73,3.67,12.86
		C119.28,428.46,119.36,429.79,119.45,431.12z"/>
	<path class="st2" d="M221.73,443.26c-1.15-6.78,4.27-19.96,12.13-23.95c5.52-2.8,11.32-3.99,17.4-4.32
		c4.54-0.25,9.08-0.65,13.62-0.72c4.05-0.06,7.97,0.65,11.07,3.66c1.75,1.7,3.49,3.4,5.31,5.01c6.32,5.61,8.84,12.81,8.76,21.04
		c-0.09,9.1-2.04,17.74-6.96,25.54c-5.78,9.16-14.58,13.88-24.89,14.52c-9.45,0.59-17.53-3.86-23.6-11.25
		C226.36,462.79,222.4,458.93,221.73,443.26z"/>
</g>
</svg>
